grf
version=1
nRows=23
nColumns=28
inDegrees=no
endheader
time	ground_force_1_vx	ground_force_1_vy	ground_force_1_vz	ground_force_1_px	ground_force_1_py	ground_force_1_pz	ground_moment_1_mx	ground_moment_1_my	ground_moment_1_mz	ground_force_2_vx	ground_force_2_vy	ground_force_2_vz	ground_force_2_px	ground_force_2_py	ground_force_2_pz	ground_moment_2_mx	ground_moment_2_my	ground_moment_2_mz	ground_force_3_vx	ground_force_3_vy	ground_force_3_vz	ground_force_3_px	ground_force_3_py	ground_force_3_pz	ground_moment_3_mx	ground_moment_3_my	ground_moment_3_mz
      0.71000000	      0.66933455	      0.54727553	     -0.56693583	    638.23670166	   -570.87191473	      0.60575534	      0.23218115	      0.83957003	    460.03916788	      0.48810580	      0.86034917	      0.51830174	  -1019.06395314	   -806.68871835	      0.83919882	     -0.11300300	     -1.46146076	   1751.22957836	      4.19955586	     -0.07553444	   -965.42550607	    425.29438773	   -453.80943154	      0.72279099	     -0.06947135	      0.51033145	    248.50087220
      0.72000000	      0.54087517	      0.77365195	     -1.45874462	    498.71230224	   -992.87123279	      1.44632054	      0.13451106	      0.48639372	    266.51756963	      0.29578936	      0.43603947	      0.60826868	   -678.45124209	   -993.36778480	      0.70538776	     -0.04632844	     -0.59916280	    717.96085837	      4.60988030	      0.75537589	   -964.79471064	    425.36139446	   -454.21010605	      0.72363256	     -0.11125290	      0.81725567	    397.95459650
      0.73000000	      0.67901047	      0.58441041	     -0.80617359	    595.09787055	   -719.91210819	      0.89952533	      0.20294849	      0.73386436	    402.11815218	      0.34377546	      0.78757734	      0.23771495	   -150.49585154	  -1247.40939851	      0.52744918	     -0.04068064	     -0.52612014	    630.43577411	      4.28593553	      1.14248560	   -964.93660794	    425.54112598	   -454.30021730	      0.72386786	     -0.09196629	      0.67557761	    328.96586073
      0.74000000	      0.64235990	      0.56078878	     -0.57736028	    617.70665744	   -648.96213407	      0.75863123	      0.20977435	      0.75854676	    415.64278291	      0.51001249	      0.60530344	      1.65704217	    -19.11816460	  -1429.14680843	      0.38426064	     -0.03022717	     -0.39092608	    468.43633021	      4.58928196	      1.36337961	   -965.30414195	    425.43625980	   -454.59358970	      0.72444103	     -0.13445226	      0.98767651	    480.93934267
      0.75000000	      0.36178687	      0.67476715	     -0.87303520	    569.26505738	   -745.89913225	      0.95998936	      0.12392228	      0.44810458	    245.53718062	      0.27083916	      0.62482123	      1.48830661	    112.96522272	  -1349.55805290	      0.45920321	     -0.02540066	     -0.32850519	    393.63903442	      4.04704182	      1.85078115	   -964.42774061	    425.41219236	   -455.10078254	      0.72547589	     -0.17081886	      1.25482283	    611.02361367
      0.76000000	      0.59356185	      0.64881375	     -0.80486780	    549.55763103	   -729.86021402	      0.94066469	      0.19094785	      0.69046991	    378.34033012	      0.24170476	      0.70839862	      0.89692823	   -366.30437840	  -1210.48445081	      0.54433866	     -0.04640473	     -0.60014948	    719.14316913	      3.97896140	      1.69264256	   -962.79868623	    425.55081057	   -455.13561169	      0.72558617	     -0.15396254	      1.13099754	    550.72810593
      0.77000000	      0.36542895	      0.65715709	     -0.84958145	    473.72553964	   -694.19198454	      0.91384264	      0.15308889	      0.55357142	    303.32732927	      0.25230538	      0.69424454	     -0.05874359	   4306.29771223	  -4574.45175374	     -1.96149393	      0.21897232	      2.83195544	  -3393.45693596	      3.76010157	      1.75342540	   -962.22979213	    425.55332466	   -455.38928185	      0.72610782	     -0.14555551	      1.06924014	    520.65595029
      0.78000000	      0.75195814	      0.81145280	     -1.19418398	    511.73492325	   -857.77440422	      1.19319675	      0.17029092	      0.61577416	    337.41108284	      0.28061001	      0.52983593	      0.29982559	  -2257.69656735	    -15.58178360	      1.41947827	     -0.12343550	     -1.59638364	   1912.90407904	      3.68091283	      1.76115478	   -961.69854135	    425.53218839	   -455.48344996	      0.72629530	     -0.11476735	      0.84307258	    410.52588330
      0.79000000	      0.47800248	      0.49235953	     -0.91430002	    579.98017605	   -868.81327979	      1.17889938	      0.12356197	      0.44680166	    244.82325270	      0.38027025	      0.56324531	      0.97328078	   -255.76107395	  -1259.05575051	      0.51093737	     -0.04220803	     -0.54587380	    654.10607075	      3.46111426	      1.43470107	   -959.78585354	    425.63568926	   -455.46610010	      0.72628861	     -0.10934035	      0.80320625	    391.11337111
      0.80000000	      0.48248329	      0.75425272	     -1.58426415	    538.73982051	  -1018.33621982	      1.47259223	      0.11757565	      0.42515507	    232.96208830	      0.23148818	      0.70349046	      0.69845128	   -429.28364056	  -1216.21393874	      0.53549329	     -0.05015000	     -0.64858687	    777.18440588	      2.82453220	      1.37903453	   -959.56109869	    425.62099466	   -455.72832801	      0.72682302	     -0.06458448	      0.47443284	    231.02039637
      0.81000000	      0.55564440	      0.70207479	     -0.97442185	    493.06463915	   -777.83974544	      1.05673912	      0.17665650	      0.63879218	    350.02371985	      0.36214297	      0.56086075	      1.00312898	   -271.80167650	  -1226.72232505	      0.53688565	     -0.04190849	     -0.54199988	    649.46404830	      2.94464568	      1.03988176	   -959.14261943	    425.46440441	   -455.98794263	      0.72731240	     -0.05724049	      0.42048444	    204.75075618
      0.82000000	      0.41947991	      0.55388706	     -0.95246548	    484.49034656	   -863.64964537	      1.21766935	      0.15596884	      0.56398535	    309.03360251	      0.39117220	      0.57326371	      0.74832047	   -520.81417765	  -1002.69311405	      0.70777743	     -0.05217760	     -0.67480968	    808.60650287	      2.81639071	      0.75562424	   -959.21846748	    425.82467401	   -455.88778951	      0.72720744	     -0.05010913	      0.36809804	    179.24171222
      0.83000000	      0.50531765	      0.61490412	     -1.42105702	    536.86715024	   -965.93635808	      1.37790778	      0.14656504	      0.52998108	    290.40109234	      0.52696167	      0.49487813	      1.06899454	   -182.66954356	  -1271.83968723	      0.50498518	     -0.03790929	     -0.49027851	    587.48771127	      3.15238785	      1.10973275	   -959.98164700	    425.88124782	   -455.94872412	      0.72734839	     -0.04602423	      0.33809063	    164.62990206
      0.84000000	      0.47502283	      0.52642898	     -1.33092028	    532.80745021	  -1003.19041462	      1.44794524	      0.12007375	      0.43418822	    237.91176697	      0.52529360	      0.70516518	     -0.01095683	   1979.27385688	  -3346.28171778	     -1.08670193	      0.12229442	      1.58162619	  -1895.22062258	      3.35914358	      1.28245395	   -959.11598347	    426.47820670	   -456.04926851	      0.72772176	     -0.08003606	      0.58793904	    286.29112191
      0.85000000	      0.60459551	      0.51391068	     -0.87188204	    669.91290839	   -753.83830531	      0.92368149	      0.16232934	      0.58698499	    321.63616893	      0.42621242	      0.78250980	      0.43749612	  -1145.55940064	   -483.77183641	      1.10052148	     -0.11910376	     -1.54036154	   1845.77429188	      3.29817888	      1.42011149	   -960.03153890	    426.92031353	   -456.17083547	      0.72809501	     -0.13582157	      0.99773535	    485.83739746
      0.86000000	      0.79040828	      0.58471937	     -0.71502157	    614.81244090	   -629.89881689	      0.72530144	      0.26187099	      0.94692890	    518.86604870	      0.53007546	      0.73566652	      0.65455713	   -579.67731316	   -955.85167205	      0.74306990	     -0.07641723	     -0.98829925	   1184.25271738	      3.35438907	      1.73182686	   -960.12128474	    426.85166903	   -456.32754751	      0.72839765	     -0.13104179	      0.96262341	    468.73998219
      0.87000000	      0.70059866	      0.65033217	     -0.45469075	    674.26166761	   -402.81487651	      0.28087003	      0.29305406	      1.05968726	    580.65156017	      0.29155177	      0.59328270	      1.08083675	   -105.98743250	  -1351.46410450	      0.44348402	     -0.02869445	     -0.37110353	    444.68349687	      3.25460008	      1.73509156	   -960.85222239	    427.06559007	   -456.23675129	      0.72827099	     -0.13283838	      0.97582101	    475.16642727
      0.88000000	      0.49386901	      0.63824493	     -0.87878257	    486.38166602	   -846.61652498	      1.18562942	      0.15379346	      0.55611914	    304.72334376	      0.32402499	      0.50855026	      1.24079400	    -76.43177461	  -1433.67306840	      0.37678500	     -0.02386488	     -0.30864296	    369.83865735	      2.65040824	      1.23810012	   -961.22345560	    427.40663128	   -456.43649028	      0.72877653	     -0.15383923	      1.13009175	    550.28704328
      0.89000000	      0.53166591	      0.55640855	     -1.06776236	    574.20497369	   -841.80348573	      1.13252133	      0.15664714	      0.56643807	    310.37756056	      0.44220670	      0.67549901	      0.84510325	   -528.66070981	  -1180.16990078	      0.55916069	     -0.06318759	     -0.81720114	    979.23040706	      2.03859143	      0.85534490	   -961.72024963	    427.73781602	   -456.10732883	      0.72819313	     -0.12748714	      0.93651123	    456.02491477
      0.90000000	      0.64494198	      0.63592456	     -0.47805003	    554.63828732	   -470.73188525	      0.46519211	      0.27436851	      0.99212006	    543.62837200	      0.34907834	      0.54784379	      0.96396886	   -267.15293873	  -1151.25777352	      0.60016336	     -0.04026221	     -0.52070868	    623.95137596	      1.92297433	      0.33890706	   -962.14866016	    427.72624290	   -456.06354119	      0.72809997	     -0.08477325	      0.62273809	    303.23617599
      0.91000000	      0.46382579	      0.80649833	     -0.96783554	    585.54702748	   -807.79494315	      1.06473153	      0.12364732	      0.44711032	    244.99238163	      0.32333585	      0.49329105	      0.63456565	   -494.64816786	  -1131.84782941	      0.60168186	     -0.04519968	     -0.58456461	    700.46822921	      1.45846401	     -0.35393005	   -962.70221264	    427.76393675	   -456.13444983	      0.72825613	     -0.07324381	      0.53804371	    261.99508320
      0.92000000	      0.59372227	      0.48387331	     -1.19098142	    545.10628875	   -890.17867450	      1.23549196	      0.14743093	      0.53311214	    292.11674525	      0.40582641	      0.64790992	      0.69227232	   -641.61108844	   -713.00260402	      0.94173928	     -0.07385398	     -0.95514899	   1144.52964469	      1.49049941	     -0.57876249	   -962.99567731	    427.79218015	   -455.96918424	      0.72792463	     -0.06636501	      0.48751253	    237.38942055
      0.93000000	      0.81078028	      0.65409641	     -0.97437365	    611.46558914	   -861.19024663	      1.14909672	      0.16009591	      0.57890888	    317.21089443	      0.48356490	      0.55245136	      0.18382338	  -3959.60812531	   2950.13432823	      3.78464881	     -0.30904042	     -3.99680064	   4789.25996907	      1.34875315	     -1.13267571	   -963.17870097	    427.89961399	   -456.06907576	      0.72815981	     -0.03666887	      0.26936687	    131.16554398
